Coordinates
version=1
nRows=14
nColumns=40
inDegrees=yes

Units are S.I. units (second, meters, Newtons, ...)
Angles are in degrees.

endheader
time	pelvis_tilt	pelvis_list	pelvis_rotation	pelvis_tx	pelvis_ty	pelvis_tz	hip_flexion_r	hip_adduction_r	hip_rotation_r	knee_angle_r	knee_angle_r_beta	ankle_angle_r	subtalar_angle_r	mtp_angle_r	hip_flexion_l	hip_adduction_l	hip_rotation_l	knee_angle_l	knee_angle_l_beta	ankle_angle_l	subtalar_angle_l	mtp_angle_l	lumbar_extension	lumbar_bending	lumbar_rotation	arm_flex_r	arm_add_r	arm_rot_r	elbow_flex_r	pro_sup_r	wrist_flex_r	wrist_dev_r	arm_flex_l	arm_add_l	arm_rot_l	elbow_flex_l	pro_sup_l	wrist_flex_l	wrist_dev_l
     50.43000000	     -5.35136261	     -5.86265204	     -0.90730267	      1.03211472	      0.93580437	      0.40927285	     32.66886116	     -5.92004549	     -6.04881982	     67.58507939	     67.58507939	     -2.80299753	    -14.32845361	     -0.93488250	     15.15314189	     -6.13003239	     -9.65625130	     20.63999727	     20.63999727	     12.98048886	     -8.32391723	      1.10765709	    -11.98959770	      5.19061907	      3.73959473	      5.72826000	    -13.37960101	     -6.82515729	     51.31057766	     45.19189419	      0.00000000	      0.00000000	     16.25989364	    -15.53674819	      1.94817451	     54.56962145	     45.90581866	      0.00000000	      0.00000000
     50.44164286	     -5.61452086	     -5.90469083	     -0.93584185	      1.03015490	      0.93582434	      0.40865718	     33.86161935	     -5.88719212	     -6.39091481	     65.68875210	     65.68875210	     -2.68205788	    -14.17529234	     -1.64684264	     14.86528478	     -6.22018201	    -10.08942828	     20.48539321	     20.48539321	     13.28579973	     -7.54906757	      0.75292030	    -11.96794563	      5.23617568	      3.66635839	      4.74104931	    -13.59485726	     -7.07377644	     47.34583144	     45.36294495	      0.00000000	      0.00000000	     17.86872003	    -16.04399467	      2.19258776	     56.63392724	     45.99164859	      0.00000000	      0.00000000
     50.45328571	     -5.86000437	     -5.94603493	     -0.96764591	      1.02833861	      0.93587161	      0.40809896	     34.86984046	     -5.82284399	     -6.72195389	     63.55318039	     63.55318039	     -2.59074622	    -13.84428797	     -2.08833683	     14.51347408	     -6.27316610	    -10.34207871	     20.24297408	     20.24297408	     13.54400298	     -6.97823735	      0.51544475	    -11.90892228	      5.26454413	      3.50899971	      4.13413396	    -13.72277696	     -7.31166362	     42.76667579	     45.56139901	      0.00000000	      0.00000000	     19.32642458	    -16.57671069	      2.25488445	     58.89675905	     46.11925639	      0.00000000	      0.00000000
     50.46492857	     -6.05214302	     -5.93057048	     -1.00578471	      1.02667673	      0.93594883	      0.40756919	     35.67479530	     -5.78109691	     -7.02374411	     61.19241505	     61.19241505	     -2.36440056	    -13.39150697	     -1.90493664	     14.08178595	     -6.25673415	    -10.61532111	     19.96622692	     19.96622692	     13.77360053	     -6.47301135	      0.31141220	    -11.97810558	      5.26080083	      3.80564110	      2.55060482	    -14.15126388	     -7.31194451	     40.28094608	     45.65200507	      0.00000000	      0.00000000	     21.19977648	    -16.61171080	      2.05194539	     60.65288376	     46.19812027	      0.00000000	      0.00000000
     50.47657143	     -6.20616186	     -5.93709555	     -1.02680613	      1.02523554	      0.93609586	      0.40718986	     36.22672786	     -5.69750367	     -7.39674990	     58.51726972	     58.51726972	     -2.12624138	    -12.85106019	     -1.60171315	     13.57002694	     -6.27588731	    -10.94472806	     19.62333838	     19.62333838	     13.98515560	     -5.85205960	      0.06896275	    -12.05085143	      5.28287113	      3.95461527	      1.24152549	    -14.46492712	     -7.36436072	     37.57763671	     45.75642794	      0.00000000	      0.00000000	     22.87145971	    -16.73900252	      1.99860774	     62.33506389	     46.25813113	      0.00000000	      0.00000000
     50.48821429	     -6.41156991	     -5.88872973	     -1.01866454	      1.02398262	      0.93605587	      0.40699969	     36.69904476	     -5.60914950	     -7.72632751	     55.61235165	     55.61235165	     -1.89297771	    -12.32731331	     -1.04818105	     13.14983686	     -6.30211862	    -11.47376239	     19.36696884	     19.36696884	     14.17650735	     -4.88514142	     -0.53877172	    -11.94090458	      5.18836044	      3.20131535	      1.77253094	    -14.18798212	     -8.06643221	     31.58859202	     46.05688015	      0.00000000	      0.00000000	     23.80217480	    -17.82255463	      2.28732781	     64.54701555	     46.35373795	      0.00000000	      0.00000000
     50.49985714	     -6.53794200	     -5.79747928	     -1.00321243	      1.02299367	      0.93617154	      0.40681790	     36.86788385	     -5.55557732	     -8.10778075	     52.34475474	     52.34475474	     -1.70766542	    -11.62506115	     -0.68662605	     12.51520308	     -6.16648554	    -11.64024518	     18.86333385	     18.86333385	     14.32657818	     -4.48393628	     -0.62116479	    -11.98735593	      5.10522716	      3.21630509	      0.17534019	    -14.46475286	     -8.19683203	     30.27323056	     46.11056636	      0.00000000	      0.00000000	     25.28304619	    -17.85897872	      1.92638460	     65.98627815	     46.42557060	      0.00000000	      0.00000000
     50.51150000	     -6.67890754	     -5.67211961	     -0.97921297	      1.02218952	      0.93616515	      0.40677323	     36.88540210	     -5.49132436	     -8.50393940	     48.79474143	     48.79474143	     -1.53424695	    -10.85082751	     -0.32826296	     11.88355681	     -6.02258650	    -11.91718287	     18.36209075	     18.36209075	     14.48687423	     -3.90221314	     -0.82899504	    -11.97436023	      4.96657596	      3.19567910	     -1.33769408	    -14.67958544	     -8.33494550	     28.90911301	     46.16881362	      0.00000000	      0.00000000	     26.61315387	    -17.92738745	      1.71177330	     67.47910995	     46.48477043	      0.00000000	      0.00000000
     50.52314286	     -6.79177996	     -5.45390131	     -0.97479837	      1.02160548	      0.93602350	      0.40692117	     36.73605361	     -5.45480350	     -8.86929660	     45.01938773	     45.01938773	     -1.38699399	     -9.93432485	     -0.11455506	     11.17476056	     -5.81320161	    -12.39752217	     17.81812786	     17.81812786	     14.61608625	     -3.07108469	     -1.25088365	    -11.99871154	      4.68592086	      3.24562109	     -2.74240502	    -14.76726699	     -8.61710709	     27.27060633	     46.25448151	      0.00000000	      0.00000000	     27.82486834	    -18.09048086	      1.59122401	     69.44376456	     46.55273669	      0.00000000	      0.00000000
     50.53478571	     -6.95372959	     -5.30289691	     -0.92381464	      1.02121871	      0.93567561	      0.40718854	     36.38421807	     -5.30722143	     -9.37227063	     40.85505527	     40.85505527	     -1.49949804	     -9.04760779	     -0.53117259	     10.50559053	     -5.68047459	    -12.83544492	     17.24838804	     17.24838804	     14.62734701	     -2.18716504	     -2.20209668	    -11.89046984	      4.48051601	      2.71613432	     -3.50769892	    -14.67175039	     -9.77304235	     25.27233277	     46.44816773	      0.00000000	      0.00000000	     28.27285495	    -18.78742065	      1.44698713	     72.08020418	     46.68884104	      0.00000000	      0.00000000
     50.54642857	     -7.10097166	     -5.11793397	     -0.87182625	      1.02100597	      0.93526469	      0.40754926	     35.89189284	     -5.14484352	     -9.91896712	     36.58452319	     36.58452319	     -1.35346893	     -7.81926298	      0.00347376	      9.76724011	     -5.44628163	    -13.04363559	     16.59597864	     16.59597864	     14.78595097	     -1.71800683	     -2.32276089	    -11.77212034	      4.26183811	      2.63400089	     -5.10414028	    -14.80317961	     -9.91860752	     24.64625879	     46.47582840	      0.00000000	      0.00000000	     29.29396109	    -18.78196491	      1.22134704	     73.27693687	     46.74128159	      0.00000000	      0.00000000
     50.55807143	     -7.29235817	     -4.88743096	     -0.80180715	      1.02093955	      0.93454370	      0.40803055	     35.31917500	     -4.96808605	    -10.48203644	     32.22682521	     32.22682521	     -1.20991420	     -6.46574597	      0.64732407	      9.06500908	     -5.17490108	    -13.27848469	     15.94090639	     15.94090639	     14.95626955	     -1.12531913	     -2.53371356	    -11.57265300	      3.97914273	      2.54385076	     -6.67340125	    -14.84467932	    -10.04416701	     24.19255015	     46.49317584	      0.00000000	      0.00000000	     30.18715767	    -18.81426048	      1.07477392	     74.58778323	     46.78747859	      0.00000000	      0.00000000
     50.56971429	     -7.31333514	     -4.62555130	     -0.74597865	      1.02123193	      0.93380600	      0.40864884	     34.45861134	     -4.77847812	    -11.16158208	     27.91536276	     27.91536276	     -1.05944902	     -4.79489931	      1.47047465	      8.08878861	     -4.87703889	    -13.63750857	     15.18726451	     15.18726451	     15.16123252	     -0.34664155	     -2.89595121	    -11.55935001	      3.66159872	      2.60150717	     -8.35980249	    -14.89190732	    -10.22081390	     23.96442585	     46.50352496	      0.00000000	      0.00000000	     30.90636230	    -18.77237680	      1.00354006	     76.31547768	     46.83835933	      0.00000000	      0.00000000
     50.58135714	     -7.30980375	     -4.30771529	     -0.71125564	      1.02173096	      0.93273658	      0.40943075	     33.64811084	     -4.65121769	    -11.97013281	     24.05944244	     24.05944244	     -0.44062450	     -2.67317848	      3.51286971	      7.04112687	     -4.55292818	    -14.24483409	     14.37899418	     14.37899418	     15.15766703	      0.69537972	     -4.05639936	    -11.62830383	      3.23869975	      2.53954993	    -10.38584944	    -14.83011726	    -10.82039273	     25.30696480	     46.47747370	      0.00000000	      0.00000000	     31.12787745	    -19.10474589	      0.94899475	     79.21181956	     46.96125543	      0.00000000	      0.00000000
